<svg width="360" height="340" viewBox="0 0 360 340" fill="none" xmlns="http://www.w3.org/2000/svg">
<path d="M344.132 157.1C341.936 116.375 323.95 75.7587 291.536 48.2935C240.567 5.11354 141.286 6.03834 88.9784 46.6615C70.8344 60.7511 60.1568 79.3695 55.9808 100.966C51.5168 124.08 57.356 149.192 47.7512 171.455C39.5 190.57 19.16 202.293 11.6216 221.632C2.62164 244.725 7.43124 274.06 26.972 291.224C51.9992 313.208 96.668 321.681 129.579 324.884C230.098 334.669 336.082 279.521 343.938 176.453C344.427 170.02 344.492 163.554 344.146 157.114L344.132 157.1Z" fill="#FFC100"/>
<path opacity="0.7" d="M344.132 157.1C341.936 116.375 323.95 75.7587 291.536 48.2935C240.567 5.11354 141.286 6.03834 88.9784 46.6615C70.8344 60.7511 60.1568 79.3695 55.9808 100.966C51.5168 124.08 57.356 149.192 47.7512 171.455C39.5 190.57 19.16 202.293 11.6216 221.632C2.62164 244.725 7.43124 274.06 26.972 291.224C51.9992 313.208 96.668 321.681 129.579 324.884C230.098 334.669 336.082 279.521 343.938 176.453C344.427 170.02 344.492 163.554 344.146 157.114L344.132 157.1Z" fill="white"/>
<path d="M289.195 129.445V57.2355H297.303V49.7896H321.631V55.7464H328.003V179.323H345.384V200.913H356.386" stroke="#263238" stroke-miterlimit="10"/>
<path d="M210.42 139.121V83.2863H227.218V96.6891H235.325V77.3363H253.282V160.711H268.344V190.488H280.505V144.337H289.195V134.654" stroke="#263238" stroke-miterlimit="10"/>
<path d="M147.283 101.898V200.913H157.126V142.848H171.029V191.978H210.42V148.056" stroke="#263238" stroke-miterlimit="10"/>
<path d="M116.582 174.855V52.7679H147.283V93.7107" stroke="#263238" stroke-miterlimit="10"/>
<path d="M56.9238 139.121V153.265H65.607V89.2432H100.361V188.258H116.583V178.582" stroke="#263238" stroke-miterlimit="10"/>
<path d="M19.2676 200.913H32.0116V108.603H56.9236V131.675" stroke="#263238" stroke-miterlimit="10"/>
<path d="M327.067 25.3504C327.067 25.3504 322.43 16.5989 313.747 17.6937C305.057 18.7885 303.898 26.9961 301.586 27.5401C299.275 28.0841 294.055 24.8064 290.578 26.4452C287.1 28.084 284.789 31.9125 284.789 31.9125C284.789 31.9125 280.152 30.2737 276.682 31.9125C273.211 33.5513 271.469 36.8356 271.469 36.8356H343.872C343.872 36.8356 343.296 28.0841 338.083 26.4385C332.87 24.7997 329.393 29.7229 327.074 25.3437L327.067 25.3504Z" stroke="#263238" stroke-miterlimit="10"/>
<path d="M227.419 56.7936C227.419 56.7936 223.991 50.3268 217.569 51.1292C211.147 51.9384 210.29 58.004 208.576 58.4052C206.863 58.8064 203.011 56.3856 200.44 57.596C197.87 58.8064 196.156 61.642 196.156 61.642C196.156 61.642 192.729 60.4316 190.159 61.642C187.588 62.8524 186.307 65.28 186.307 65.28H239.831C239.831 65.28 239.407 58.8132 235.547 57.596C231.695 56.3856 229.125 60.0236 227.411 56.7868L227.419 56.7936Z" stroke="#263238" stroke-miterlimit="10"/>
<path d="M46.094 33.4969C46.094 33.4969 43.1996 28.0365 37.778 28.7165C32.3564 29.3965 31.6292 34.5237 30.182 34.8637C28.7348 35.2037 25.4804 33.1569 23.3132 34.1837C21.146 35.2105 19.6988 37.5973 19.6988 37.5973C19.6988 37.5973 16.8044 36.5705 14.6372 37.5973C12.47 38.6241 11.3828 40.6709 11.3828 40.6709H56.5772C56.5772 40.6709 56.2172 35.2105 52.9628 34.1837C49.7084 33.1569 47.5412 36.2305 46.094 33.5037V33.4969Z" stroke="#263238" stroke-miterlimit="10"/>
<path d="M311.025 225.298L297.129 273.115H327.448L313.552 225.298C313.199 224.087 311.378 224.087 311.025 225.298Z" fill="white" stroke="#263238" stroke-miterlimit="10"/>
<path d="M297.129 273.115H323.114L310.125 228.405L297.129 273.115Z" fill="#263238" stroke="#263238" stroke-miterlimit="10"/>
<path d="M302.682 254.021H321.898L319.314 245.113H305.266L302.682 254.021Z" fill="white" stroke="#263238" stroke-miterlimit="10"/>
<path d="M331.02 272.313H293.551C292.428 272.313 291.514 273.176 291.514 274.237C291.514 275.298 292.428 276.162 293.551 276.162H331.02C332.143 276.162 333.058 275.298 333.058 274.237C333.058 273.176 332.143 272.313 331.02 272.313Z" fill="white" stroke="#263238" stroke-miterlimit="10"/>
<path d="M321.848 274.237C321.848 273.176 320.933 272.313 319.81 272.313H293.559C292.436 272.313 291.521 273.176 291.521 274.237C291.521 275.298 292.436 276.162 293.559 276.162H319.81C320.933 276.162 321.848 275.298 321.848 274.237Z" fill="#263238" stroke="#263238" stroke-miterlimit="10"/>
<path d="M67.0162 276.087C66.937 276.087 66.8578 276.08 66.7786 276.073C64.4098 275.896 62.3362 274.604 61.2346 272.612L31.513 219.184L27.949 218.647C27.1642 218.532 26.6314 217.831 26.7538 217.09C26.8762 216.349 27.6106 215.839 28.4026 215.961L32.6794 216.607C33.1258 216.675 33.5146 216.94 33.7234 217.321L63.7834 271.347C64.4242 272.503 65.6338 273.258 67.009 273.36C68.8738 273.489 70.6234 272.374 71.1634 270.681L77.7154 250.172C77.8234 249.825 78.0754 249.533 78.4138 249.363C78.7522 249.193 79.1482 249.159 79.5154 249.261L122.557 261.644L108.654 236.13C108.287 235.464 108.567 234.641 109.273 234.301C109.979 233.954 110.85 234.219 111.21 234.886L126.675 263.262C126.942 263.745 126.87 264.336 126.503 264.758C126.135 265.18 125.531 265.35 124.976 265.186L80.0554 252.26L73.921 271.463C73.0138 274.305 70.1338 276.216 67.009 276.08L67.0162 276.087Z" fill="white" stroke="#263238" stroke-miterlimit="10"/>
<path d="M28.0648 219.681C27.9856 219.681 27.9136 219.674 27.8344 219.66L13.6072 217.824C12.232 217.648 11.26 216.444 11.4544 215.145C11.6416 213.846 12.9088 212.928 14.2912 213.112L28.5184 214.948C29.8936 215.125 30.8656 216.328 30.6712 217.627C30.4912 218.858 29.3464 219.735 28.0648 219.681Z" fill="#263238" stroke="#263238" stroke-miterlimit="10"/>
<path d="M138.123 264.438C138.447 257.802 133.004 252.171 125.977 251.865C118.95 251.559 112.988 256.7 112.664 263.337C112.34 269.974 117.783 275.604 124.811 275.91C131.838 276.216 137.799 271.075 138.123 264.438Z" fill="#263238" stroke="#263238" stroke-miterlimit="10"/>
<path d="M128.492 267.902C130.837 266.286 131.352 263.181 129.641 260.966C127.93 258.751 124.642 258.265 122.297 259.881C119.952 261.497 119.438 264.602 121.148 266.817C122.859 269.032 126.147 269.518 128.492 267.902Z" fill="white" stroke="#263238" stroke-miterlimit="10"/>
<path d="M47.9512 219.348C47.9512 219.348 75.952 204.891 82.5832 204.938C89.2144 204.986 113.118 222.401 113.118 222.401L47.9512 219.348Z" fill="#263238" stroke="#263238" stroke-miterlimit="10"/>
<path d="M43.4512 217.464L52.0984 249.642L102.254 251.811L122.378 220.871L43.4512 217.464Z" fill="white" stroke="#263238" stroke-miterlimit="10"/>
<path d="M16.1289 276.372H345.421" stroke="#263238" stroke-miterlimit="10"/>
<path d="M193.471 255.428L192.492 274.727C192.492 274.727 190.692 277.97 189.878 279.052C189.058 280.133 185.465 280.595 184.154 282.601C182.844 284.607 183.334 287.232 183.334 287.232C183.334 287.232 184.478 288.47 187.423 288.47H196.085C198.043 288.47 200.009 288.007 200.822 287.851C201.636 287.694 203.602 287.232 204.091 286.613C204.581 285.994 205.402 283.832 205.236 281.058C205.07 278.276 203.926 275.808 203.926 274.264C203.926 272.721 209.484 256.822 209.484 256.822L193.464 255.435L193.471 255.428Z" fill="#263238" stroke="#263238" stroke-miterlimit="10"/>
<path d="M279.122 254.966C279.122 254.966 279.122 273.489 279.287 273.952C279.453 274.414 284.514 277.814 284.514 277.814C284.514 277.814 292.852 279.052 293.831 280.133C294.81 281.214 295.142 283.526 294.81 284.301C294.479 285.076 286.638 286.001 283.859 286.001C281.08 286.001 277.646 285.382 277.646 285.382C277.646 285.382 276.177 284.607 275.19 285.076L274.211 285.539H266.694C266.694 285.539 265.384 281.37 265.384 278.589C265.384 275.808 266.363 272.571 266.363 272.571L265.053 257.441L279.107 254.973L279.122 254.966Z" fill="#263238" stroke="#263238" stroke-miterlimit="10"/>
<path d="M208.519 178.595C208.519 178.595 203.019 191.583 203.249 195.697C203.479 199.811 201.413 225.576 201.413 225.576C201.413 225.576 195.912 236.402 194.537 242.468C193.162 248.533 192.247 255.245 192.931 257.19C193.615 259.134 202.788 260.868 206.914 260.005C211.039 259.141 213.559 256.326 213.79 255.673C214.02 255.02 216.31 247.663 216.54 243.984C216.771 240.305 216.771 235.538 216.771 235.538C216.771 235.538 220.666 228.174 221.811 224.495C222.955 220.816 234.418 207.393 234.418 207.393L258.257 235.974C258.257 235.974 262.843 247.452 262.843 249.832C262.843 252.212 262.383 257.196 265.133 258.706C267.883 260.222 273.615 259.787 276.595 258.924C279.576 258.06 281.866 256.108 282.557 250.478C283.248 244.848 281.412 243.331 281.412 237.055C281.412 230.778 275.911 209.127 271.325 203.497C266.739 197.866 259.863 190.291 259.863 190.291C259.863 190.291 241.884 195.486 235.973 193.433C230.062 191.379 208.512 178.602 208.512 178.602L208.519 178.595Z" fill="#263238" stroke="#263238" stroke-miterlimit="10"/>
<path d="M275.731 180.907C275.731 180.907 273.967 187.857 273.967 192.311C273.967 196.765 273.671 214.839 273.671 216.09C273.671 217.342 271.317 221.653 270.431 222.904C269.546 224.155 271.022 226.658 271.022 226.658C271.022 226.658 274.262 229.718 275.291 230.275C276.321 230.833 278.675 230.833 279.417 229.996C280.151 229.16 283.391 226.379 283.543 225.128C283.694 223.876 280.749 217.199 280.749 216.369C280.749 215.54 287.078 193.147 287.078 189.258C287.078 185.368 287.222 179.806 287.222 179.806L275.738 180.921L275.731 180.907Z" fill="white" stroke="#263238" stroke-miterlimit="10"/>
<path d="M279.41 229.996C280.144 229.16 283.384 226.379 283.535 225.128C283.679 223.876 280.735 217.199 280.735 216.369C280.735 216.233 280.9 215.553 281.167 214.486L273.693 214.023C273.679 215.125 273.671 215.873 273.671 216.09C273.671 217.342 271.317 221.653 270.431 222.904C269.546 224.155 271.022 226.658 271.022 226.658C271.022 226.658 274.262 229.718 275.291 230.275C276.321 230.833 278.675 230.833 279.417 229.996H279.41Z" fill="#FFC100" stroke="#263238" stroke-miterlimit="10"/>
<path d="M290.6 147.404C290.6 147.404 291.19 151.021 291.039 155.604C290.895 160.194 290.6 164.227 290.6 164.227L292.22 180.214C292.22 180.214 283.241 182.859 279.706 182.859C276.171 182.859 274.256 181.886 274.256 181.886V171.455C274.256 171.455 277.345 165.478 279.411 160.752C281.47 156.026 286.474 146.846 286.769 146.288C287.065 145.731 290.6 147.404 290.6 147.404Z" fill="#A1A1A1" stroke="#263238" stroke-miterlimit="10"/>
<path d="M278.82 166.865C278.82 166.865 285.3 165.614 288.389 161.582" stroke="#263238" stroke-miterlimit="10"/>
<path d="M288.245 164.363C288.245 164.363 286.33 165.893 281.916 166.865" stroke="#263238" stroke-miterlimit="10"/>
<path d="M273.082 125.99C273.082 125.99 261.598 124.046 255.269 122.373C248.941 120.707 245.11 120.285 242.605 121.536C240.099 122.788 224.936 149.763 223.762 151.293C222.581 152.823 213.164 162.833 210.658 168.953C208.153 175.073 206.389 182.437 206.389 182.437C206.389 182.437 223.316 200.376 231.711 201.348L234.361 201.627L239.811 194.398L239.955 200.933C239.955 200.933 243.785 200.24 249.963 197.594C256.148 194.949 262.916 190.781 263.067 190.087C263.218 189.394 261.447 188.278 261.447 188.278C261.447 188.278 265.573 181.88 267.481 180.35C269.396 178.82 278.374 167.974 278.374 167.974C278.374 167.974 287.943 153.932 288.238 148.648C288.533 143.364 289.419 136.136 287.504 133.491C285.589 130.846 273.075 125.984 273.075 125.984L273.082 125.99Z" fill="#FFC100" stroke="#263238" stroke-miterlimit="10"/>
<path d="M263.066 190.087C263.21 189.394 261.446 188.278 261.446 188.278C261.446 188.278 262.469 186.694 263.729 184.912C256.514 185.715 246.701 186.082 238.673 183.77C230.573 181.431 221.227 170.986 214.718 162.241C213.055 164.506 211.594 166.777 210.766 168.694C217.469 177.31 227.066 187.524 236.57 190.271C241.906 191.808 247.781 192.338 253.318 192.338C255.809 192.338 258.228 192.229 260.503 192.066C262.03 191.094 263.016 190.352 263.066 190.094V190.087Z" fill="white" stroke="#263238" stroke-miterlimit="10"/>
<path d="M253.014 168.667C244.151 165.002 233.819 151.599 228.405 143.521C226.691 146.431 225.258 148.872 224.438 150.226C230.14 158.311 240.148 170.775 250.127 174.903C254.001 176.501 259.696 177.303 267.155 177.303C268.221 177.303 269.322 177.283 270.46 177.249C272.469 174.998 274.945 172.074 276.587 170.116C267.141 170.809 257.961 170.714 253.007 168.674L253.014 168.667Z" fill="white" stroke="#263238" stroke-miterlimit="10"/>
<path d="M292.075 288.857C291.715 288.857 291.362 288.687 291.153 288.374L271.425 258.203C271.108 257.72 271.267 257.094 271.778 256.802C272.282 256.51 272.951 256.652 273.261 257.135L292.989 287.307C293.306 287.79 293.147 288.415 292.636 288.708C292.456 288.81 292.262 288.857 292.067 288.857H292.075Z" fill="white" stroke="#263238" stroke-miterlimit="10"/>
<path d="M226.26 199.539C226.26 199.539 223.02 203.014 223.171 204.408C223.315 205.795 231.71 224.012 233.035 224.985C234.36 225.957 238.334 226.515 238.334 226.515L244.663 234.58L260.122 225.821L240.984 196.064C240.984 196.064 237.895 193.841 235.98 193.419C234.065 193.004 233.179 192.583 232.006 193.419C230.825 194.256 226.267 199.539 226.267 199.539H226.26Z" fill="#A1A1A1" stroke="#263238" stroke-miterlimit="10"/>
<path d="M244.664 234.58L270.303 258.794C271.203 259.644 272.65 259.699 273.622 258.917C274.436 258.257 274.702 257.169 274.27 256.238L260.13 225.821L244.671 234.58H244.664Z" fill="#A1A1A1" stroke="#263238" stroke-miterlimit="10"/>
<path d="M233.625 203.436C233.625 203.436 242.459 219.565 249.227 229.996" stroke="#263238" stroke-miterlimit="10"/>
<path d="M238.334 226.515L228.766 211.079C228.766 211.079 228.031 211.915 229.651 215.247C231.271 218.586 233.921 221.918 233.921 221.918" stroke="#263238" stroke-miterlimit="10"/>
<path d="M251 240.7L263.514 233.471" stroke="#263238" stroke-miterlimit="10"/>
<path d="M253.059 242.787L264.838 236.252" stroke="#263238" stroke-miterlimit="10"/>
<path d="M248.35 212.636C249.329 214.574 248.905 216.702 247.4 217.376C245.895 218.056 243.879 217.029 242.9 215.084C241.921 213.146 242.345 211.018 243.85 210.344C245.355 209.664 247.371 210.691 248.35 212.636Z" fill="white" stroke="#263238" stroke-miterlimit="10"/>
<path d="M264.795 238.911L272.463 223.57C273.392 221.721 275.883 221.143 277.611 222.374C279.101 223.434 279.411 225.434 278.309 226.855L267.697 240.543C267.106 241.298 265.961 241.42 265.213 240.802C264.644 240.332 264.471 239.557 264.795 238.911Z" fill="#A1A1A1" stroke="#263238" stroke-miterlimit="10"/>
<path d="M218.606 143.507C218.606 143.507 213.011 152.687 212.277 154.074C211.542 155.462 222.731 186.47 222.731 186.47C222.731 186.47 221.702 194.534 221.702 195.65C221.702 196.765 225.532 199.124 226.266 199.546C227.001 199.961 227.886 200.382 228.916 200.661C229.946 200.94 233.042 200.525 233.042 200.525C233.042 200.525 231.422 196.078 232.012 194.684C232.602 193.297 233.481 193.018 234.071 193.018C234.662 193.018 235.986 193.433 235.986 193.433C235.986 193.433 235.986 191.066 235.547 189.815C235.108 188.564 230.097 185.647 229.658 184.946C229.218 184.253 224.207 156.441 224.207 156.441L225.532 153.796L218.613 143.507H218.606Z" fill="white" stroke="#263238" stroke-miterlimit="10"/>
<path d="M229.65 184.94C229.578 184.824 229.384 184.001 229.117 182.702C226.842 182.621 223.832 183.94 222.133 184.797C222.515 185.858 222.731 186.47 222.731 186.47C222.731 186.47 221.701 194.534 221.701 195.65C221.701 196.765 225.532 199.124 226.266 199.546C227 199.961 227.886 200.382 228.916 200.661C229.945 200.94 233.041 200.525 233.041 200.525C233.041 200.525 231.421 196.078 232.012 194.684C232.602 193.297 233.48 193.018 234.071 193.018C234.661 193.018 235.986 193.433 235.986 193.433C235.986 193.433 235.986 191.066 235.547 189.815C235.108 188.564 230.096 185.647 229.657 184.946L229.65 184.94Z" fill="#FFC100" stroke="#263238" stroke-miterlimit="10"/>
<path d="M247.168 128.493C247.168 128.493 247.168 124.324 246.434 123.345C244.483 120.768 244.08 120.979 242.604 121.536C241.135 122.094 236.419 124.175 234.208 125.705C231.998 127.235 215.215 142.113 215.215 142.113L225.518 156.298L236.412 150.042C236.412 150.042 238.327 149.07 240.242 147.54C242.157 146.01 247.752 136.972 247.161 128.493H247.168Z" fill="#A1A1A1" stroke="#263238" stroke-miterlimit="10"/>
<path d="M280.779 289.163H299.276" stroke="#263238" stroke-miterlimit="10"/>
<path d="M304.547 289.082L301.012 289.415L301.185 290.754L307.117 290.503L304.547 289.082Z" stroke="#263238" stroke-miterlimit="10"/>
<path d="M309.328 288.245L311.099 289.497L315.794 288.993L318.098 288.49L316.773 287.402C316.773 287.402 314.383 286.899 314.116 286.899C313.85 286.899 311.546 287.069 311.546 287.069L309.335 288.239L309.328 288.245Z" stroke="#263238" stroke-miterlimit="10"/>
<path d="M307.649 287.994L306.231 286.402L303.754 287.49C303.754 287.49 305.878 288.578 306.231 288.66C306.584 288.742 307.649 287.994 307.649 287.994Z" stroke="#263238" stroke-miterlimit="10"/>
<path d="M303.135 286.151H299.24L298.268 287.239L301.277 287.66L303.135 286.151Z" stroke="#263238" stroke-miterlimit="10"/>
<path d="M296.584 286.572L294.46 286.491L293.754 287.49L296.137 287.66L296.584 286.572Z" stroke="#263238" stroke-miterlimit="10"/>
<path d="M264.391 127.52C264.391 127.52 262.036 132.246 261.59 141.841C261.151 151.436 261.151 156.305 260.855 158.528C260.56 160.752 260.121 165.063 260.121 165.063C260.121 165.063 266.896 159.501 269.841 155.747C272.786 151.994 273.52 145.738 273.52 145.738L276.904 135.728C276.904 135.728 278.373 132.532 278.085 131.56C277.79 130.587 272.93 128.085 269.107 127.663C265.276 127.248 264.398 127.527 264.398 127.527L264.391 127.52Z" fill="#A1A1A1" stroke="#263238" stroke-miterlimit="10"/>
<path d="M273.082 125.99C273.082 125.99 268.668 125.297 266.306 125.99C263.952 126.684 263.066 131.41 263.066 135.028C263.066 138.645 264.535 145.037 265.572 146.71C266.602 148.376 267.041 148.376 268.517 147.961C269.986 147.546 273.521 145.738 273.521 145.738C273.521 145.738 273.01 140.733 273.665 137.673C274.32 134.613 278.525 129.05 278.525 129.05L273.074 125.99H273.082Z" fill="white" stroke="#263238" stroke-miterlimit="10"/>
<path d="M271.361 137.775C271.361 137.775 269.496 139.536 268.668 142.467C267.84 145.398 266.602 148.138 266.602 148.138C266.602 148.138 271.778 147.159 274.882 144.228C277.985 141.297 271.361 137.775 271.361 137.775Z" fill="#263238" stroke="#263238" stroke-miterlimit="10"/>
<path d="M277.256 123.406C277.256 123.406 276.615 123.644 275.852 124.61C275.089 125.576 274.578 126.052 274.066 126.052C273.555 126.052 272.029 125.331 271.518 125.929C271.006 126.528 270.243 126.534 271.388 127.976C272.533 129.418 273.937 130.744 273.937 130.744C273.937 130.744 273.296 133.396 274.319 134.599C275.341 135.803 281.842 135.803 282.346 135.68C282.858 135.558 283.621 136.163 283.369 133.872C283.117 131.58 277.249 123.4 277.249 123.4L277.256 123.406Z" fill="#263238" stroke="#263238" stroke-miterlimit="10"/>
<path d="M288.093 146.887C288.093 146.887 285.544 149.899 284.781 150.375C284.018 150.858 280.317 149.654 280.317 149.654C280.317 149.654 276.746 151.824 275.471 151.341C274.197 150.858 270.244 143.874 270.244 140.869C270.244 137.863 272.159 133.647 272.159 133.647C272.159 133.647 272.03 130.274 273.686 129.071C275.342 127.867 276.746 129.431 276.998 130.635C277.25 131.838 275.723 134.008 276.616 134.246C277.509 134.484 281.332 134.246 281.332 134.246C281.332 134.246 285.537 145.078 288.086 146.887H288.093Z" fill="white" stroke="#263238" stroke-miterlimit="10"/>
<path d="M281.461 144.84C281.461 144.84 281.591 147.125 284.01 147.37" stroke="#263238" stroke-miterlimit="10"/>
<path d="M277.767 145.078C277.767 145.078 277.256 147.247 278.79 148.451" stroke="#263238" stroke-miterlimit="10"/>
<path d="M280.31 116.831C280.31 116.831 274.55 117.701 275.011 120.965C275.471 124.229 278.927 127.935 279.388 130.111C279.849 132.287 281.692 139.91 282.844 142.739C283.996 145.568 284.227 146.873 287.222 148.179C290.217 149.484 295.293 151.008 296.445 149.484C297.597 147.961 297.597 142.297 297.597 142.297C297.597 142.297 303.127 137.292 303.357 130.104C303.587 122.917 300.362 118.565 295.516 116.171C290.678 113.778 284.45 112.472 280.303 116.824L280.31 116.831Z" fill="white" stroke="#263238" stroke-miterlimit="10"/>
<path d="M277.004 118.837C277.004 118.837 275.73 120.401 277.256 123.413C278.783 126.426 281.209 129.316 281.72 132.199C282.232 135.089 282.613 139.182 285.414 141.107C288.215 143.031 293.442 144.595 295.609 143.997" stroke="#263238" stroke-miterlimit="10"/>
<path d="M279.805 117.749C279.805 117.749 278.531 120.278 279.935 122.203C281.339 124.127 283.758 128.826 284.903 131.356C286.048 133.885 285.976 137.986 291.786 140.141" stroke="#263238" stroke-miterlimit="10"/>
<path d="M113.58 115.24C113.58 115.24 116.69 121.36 120.319 123.318C123.948 125.276 144.936 127.48 144.936 127.48L148.824 109.371C148.824 109.371 142.085 110.84 139.234 111.085C136.382 111.33 133.272 111.33 133.272 111.33L113.58 115.246V115.24Z" fill="#A1A1A1" stroke="#263238" stroke-miterlimit="10"/>
<path d="M118.504 104.224C118.504 104.224 115.912 105.203 114.357 106.672C112.802 108.14 112.802 114.75 113.579 115.24C114.357 115.729 122.392 119.401 123.688 119.401C124.984 119.401 131.723 116.953 132.76 115.484C133.797 114.016 135.352 109.854 133.797 107.406C132.242 104.958 120.318 102.265 118.504 104.224Z" fill="white" stroke="#263238" stroke-miterlimit="10"/>
<path d="M120.577 98.1038C120.577 98.1038 115.134 109.365 117.207 112.547C119.281 115.729 123.428 116.219 126.539 114.505C129.649 112.792 130.945 109.609 131.463 108.63C131.982 107.651 137.72 83.8782 137.72 83.8782C137.72 83.8782 140.053 82.6542 141.349 81.9198C142.645 81.1854 143.948 79.5942 143.948 79.5942C143.948 79.5942 147.57 78.1254 150.939 76.5342C152.747 75.6774 150.032 74.4602 149.255 74.4602C148.477 74.4602 145.755 75.555 145.755 75.555V72.8622C145.755 72.8622 139.275 72.8622 136.683 73.107C134.091 73.3518 131.759 72.8622 129.944 74.5758C128.13 76.2894 127.352 83.8782 127.352 83.8782L120.577 98.1106V98.1038Z" fill="white" stroke="#263238" stroke-miterlimit="10"/>
<path d="M149.248 74.4532C148.47 74.4532 145.749 75.548 145.749 75.548V72.8552C145.749 72.8552 139.269 72.8552 136.677 73.1C134.085 73.3448 131.752 72.8552 129.938 74.5688C128.123 76.2824 127.346 83.8712 127.346 83.8712L127.252 84.1908C129.282 85.1496 132.789 86.462 137.267 86.8496C137.541 85.0204 137.706 83.8712 137.706 83.8712C137.706 83.8712 140.039 82.6472 141.335 81.9128C142.631 81.1784 143.934 79.5872 143.934 79.5872C143.934 79.5872 147.563 78.1184 150.926 76.5272C152.733 75.6704 150.018 74.4532 149.241 74.4532H149.248Z" fill="#FFC100" stroke="#263238" stroke-linecap="round" stroke-linejoin="round"/>
<path d="M129.945 74.5757C129.945 74.5757 132.552 70.9105 133.459 70.1761C134.366 69.4417 138.377 70.2985 138.377 70.2985C138.377 70.2985 141.617 74.0861 140.709 74.6981C139.802 75.3101 137.081 73.8413 137.081 73.8413L133.97 74.4533" fill="#FFC100"/>
<path d="M129.945 74.5757C129.945 74.5757 132.552 70.9105 133.459 70.1761C134.366 69.4417 138.377 70.2985 138.377 70.2985C138.377 70.2985 141.617 74.0861 140.709 74.6981C139.802 75.3101 137.081 73.8413 137.081 73.8413L133.97 74.4533" stroke="#263238" stroke-miterlimit="10"/>
<path d="M138.375 70.2984C138.375 70.2984 140.189 69.6864 140.837 69.9312C141.485 70.176 143.818 73.474 143.948 74.3308C144.077 75.1876 142.393 75.0652 142.393 75.0652L140.708 74.698L138.375 70.2984Z" fill="#FFC100" stroke="#263238" stroke-miterlimit="10"/>
<path d="M140.832 69.9312C140.832 69.9312 142.646 69.8088 143.424 70.2984C144.202 70.788 145.102 71.5088 145.75 72.862C146.398 74.2152 143.942 74.3376 143.942 74.3376C143.942 74.3376 143.035 72.5016 142.646 71.8896C142.258 71.2776 140.832 69.9312 140.832 69.9312Z" fill="#FFC100" stroke="#263238" stroke-miterlimit="10"/>
<path d="M143.424 70.2984C143.424 70.2984 145.627 69.8088 146.405 70.5432C147.182 71.2776 148.349 73.236 147.701 73.7256C147.053 74.2152 145.757 72.862 145.757 72.862C145.757 72.862 144.079 70.176 143.431 70.2984H143.424Z" fill="#FFC100" stroke="#263238" stroke-miterlimit="10"/>
<path d="M57.6855 73.9295L58.3263 67.0071L36.3231 65.1915L35.6823 72.1207L42.8607 72.7123L41.5503 86.8631L34.3791 86.2715L33.7383 93.1939L55.7343 95.0095L56.3751 88.0803L49.1967 87.4887L50.5071 73.3379L57.6855 73.9295Z" fill="#263238" stroke="#263238" stroke-miterlimit="10"/>
<path d="M58.3263 67.0071L238.492 81.8039L237.534 88.6991L57.6855 73.9295L58.3263 67.0071Z" fill="white" stroke="#263238" stroke-miterlimit="10"/>
<path d="M50.5075 73.2982L49.1992 87.4496L229.048 102.28L230.356 88.1289L50.5075 73.2982Z" fill="white" stroke="#263238" stroke-miterlimit="10"/>
<path d="M56.3705 88.0449L55.7305 94.9681L235.579 109.799L236.219 102.876L56.3705 88.0449Z" fill="white" stroke="#263238" stroke-miterlimit="10"/>
<path d="M59.3343 80.4643C59.2695 81.1375 58.6431 81.6407 57.9303 81.5795C57.2175 81.5183 56.6847 80.9267 56.7495 80.2535C56.8143 79.5803 57.4407 79.0771 58.1535 79.1383C58.8663 79.1995 59.3991 79.7911 59.3343 80.4643Z" stroke="#263238" stroke-miterlimit="10"/>
<path d="M71.9417 81.5047C71.8769 82.1779 71.2505 82.6811 70.5377 82.6199C69.8249 82.5587 69.2921 81.9671 69.3569 81.2939C69.4217 80.6207 70.0481 80.1175 70.7609 80.1787C71.4737 80.2399 72.0065 80.8315 71.9417 81.5047Z" stroke="#263238" stroke-miterlimit="10"/>
<path d="M84.555 82.5452C84.4902 83.2184 83.8638 83.7216 83.151 83.6604C82.4382 83.5992 81.9054 83.0076 81.9702 82.3344C82.035 81.6612 82.6614 81.158 83.3742 81.2192C84.087 81.2804 84.6198 81.872 84.555 82.5452Z" stroke="#263238" stroke-miterlimit="10"/>
<path d="M197.711 91.8816C197.646 92.5548 197.02 93.058 196.307 92.9968C195.594 92.9356 195.062 92.344 195.126 91.6708C195.191 90.9976 195.818 90.4944 196.53 90.5556C197.243 90.6168 197.776 91.2084 197.711 91.8816Z" stroke="#263238" stroke-miterlimit="10"/>
<path d="M210.326 92.922C210.262 93.5952 209.635 94.0984 208.922 94.0372C208.21 93.976 207.677 93.3844 207.742 92.7112C207.806 92.038 208.433 91.5348 209.146 91.596C209.858 91.6572 210.391 92.2488 210.326 92.922Z" stroke="#263238" stroke-miterlimit="10"/>
<path d="M222.932 93.9624C222.867 94.6356 222.241 95.1388 221.528 95.0776C220.815 95.0164 220.282 94.4248 220.347 93.7516C220.412 93.0784 221.038 92.5752 221.751 92.6364C222.464 92.6976 222.997 93.2892 222.932 93.9624Z" stroke="#263238" stroke-miterlimit="10"/>
<path d="M138.34 178.425C138.34 178.425 129.427 194.759 128.116 204.66C126.806 214.56 124.97 224.958 126.021 227.181C127.072 229.412 128.383 233.369 129.167 233.866C129.952 234.362 142.271 256.387 143.315 257.38C144.367 258.373 146.462 261.338 146.462 261.338C146.462 261.338 145.677 263.813 146.203 264.806C146.728 265.798 148.823 268.518 148.823 268.518L152.495 272.231C152.495 272.231 157.996 272.972 160.099 270.749C162.194 268.518 163.245 264.806 163.245 263.82C163.245 262.834 164.296 261.841 162.194 259.366C160.099 256.89 158.003 255.408 158.003 255.408C158.003 255.408 151.451 237.585 150.4 233.872C149.349 230.16 145.943 222.489 145.943 222.489L156.952 198.234L165.34 183.879L138.347 178.432L138.34 178.425Z" fill="#263238" stroke="#263238" stroke-miterlimit="10"/>
<path d="M148.824 268.512L151.2 274.006C151.2 274.006 152.885 274.006 148.673 277.059C144.461 280.112 141.653 281.704 141.372 282.764C141.091 283.825 141.516 286.083 141.933 286.613C142.351 287.144 142.495 288.606 148.392 288.34C154.289 288.075 157.658 285.158 159.912 283.302C162.158 281.445 164.124 279.058 164.124 279.058L164.549 280.384C164.549 280.384 165.816 279.058 166.795 277.862C167.781 276.665 168.905 274.543 168.905 273.748C168.905 272.952 165.535 269.239 164.693 267.247C163.85 265.254 163.245 263.813 163.245 263.813C163.245 263.813 161.323 267.906 159.782 268.838C158.241 269.77 156.83 270.429 156.83 270.429C156.83 270.429 155.563 268.308 152.193 268.042C148.824 267.777 148.831 268.518 148.831 268.518L148.824 268.512Z" fill="white" stroke="#263238" stroke-miterlimit="10"/>
<path d="M167.941 272.068C166.342 273.442 163.837 276.175 162.584 278.249C160.899 281.037 156.406 285.28 150.502 286.47C146.686 287.246 143.345 286.13 141.459 285.246C141.581 285.858 141.761 286.382 141.934 286.606C142.359 287.137 142.496 288.599 148.393 288.334C154.289 288.068 157.659 285.151 159.913 283.295C162.159 281.438 164.125 279.052 164.125 279.052L164.549 280.378C164.549 280.378 165.817 279.052 166.796 277.855C167.782 276.658 168.905 274.536 168.905 273.741C168.905 273.469 168.502 272.843 167.948 272.068H167.941Z" fill="white" stroke="#263238" stroke-miterlimit="10"/>
<path d="M155.9 184.858L162.978 253.912L163.237 263.813C163.237 263.813 161.668 267.526 162.452 269.504C163.237 271.483 165.332 275.196 165.332 275.196C165.332 275.196 170.315 280.146 172.669 278.909C175.031 277.671 178.436 273.958 178.436 273.958C178.436 273.958 181.842 269.749 181.842 267.274C181.842 264.799 180.532 261.827 180.532 259.107V243.018C180.532 240.543 181.057 215.791 181.057 215.791L184.729 180.894C184.729 180.894 177.652 178.915 174.246 179.16C170.84 179.404 155.9 184.851 155.9 184.851V184.858Z" fill="#263238" stroke="#263238" stroke-miterlimit="10"/>
<path d="M162.453 269.504L163.144 274.536C163.144 274.536 161.315 279.31 160.192 281.037C159.069 282.764 156.117 284.09 154.432 285.015C152.747 285.947 152.466 287.803 153.165 289.394C153.87 290.986 154.569 291.781 157.24 292.448C159.911 293.114 168.198 292.713 171.006 291.122C173.814 289.53 176.205 287.939 176.205 287.939V289.136C176.205 289.136 177.191 288.606 178.876 287.545C180.561 286.484 180.986 285.552 180.986 285.552C180.986 285.552 180.842 279.317 180.424 277.991C179.999 276.665 179.862 276.134 179.582 275.604C179.301 275.074 180.287 270.164 180.287 270.164C180.287 270.164 178.041 272.816 176.774 273.612C175.506 274.407 174.246 274.543 173.685 274.543C173.123 274.543 173.26 271.225 172.562 270.429C171.856 269.634 169.329 268.702 167.363 268.573C165.398 268.437 162.46 269.504 162.46 269.504H162.453Z" fill="white" stroke="#263238" stroke-miterlimit="10"/>
<path d="M177.746 284.09C176.479 285.416 171.986 289 164.123 290.326C159.134 291.169 155.282 290.142 153.129 289.279C153.143 289.32 153.158 289.36 153.172 289.401C153.878 290.992 154.576 291.788 157.247 292.454C159.919 293.121 168.206 292.72 171.014 291.128C173.822 289.537 176.212 287.946 176.212 287.946V289.143C176.212 289.143 177.199 288.612 178.883 287.552C180.568 286.491 180.993 285.559 180.993 285.559C180.993 285.559 180.928 282.832 180.77 280.595C179.877 281.683 178.552 283.274 177.767 284.097L177.746 284.09Z" fill="white" stroke="#263238" stroke-miterlimit="10"/>
<path d="M138.08 170.007L135.459 180.404L142.796 187.83L146.727 182.383L149.607 188.326C149.607 188.326 164.281 188.822 170.573 186.592C176.866 184.362 181.316 182.138 181.316 182.138L186.817 185.851L185.765 174.468L138.073 170.014L138.08 170.007Z" fill="white" stroke="#263238" stroke-miterlimit="10"/>
<path d="M165.267 102.136C165.267 102.136 147.85 106.923 146.677 108.644C145.51 110.364 142.515 117.361 142.515 124.848C142.515 132.335 139.527 152.844 139.398 154.802C139.268 156.767 136.15 174.202 136.15 174.202C136.15 174.202 142.263 175.556 143.818 176.29C145.374 177.024 146.418 177.147 146.418 177.147L148.239 174.325L149.017 177.514C149.017 177.514 157.729 179.112 169.947 178.371C182.166 177.63 186.068 176.283 186.068 176.283L193.218 131.226C193.218 131.226 197.25 121.652 194.78 114.158C192.31 106.672 186.198 104.217 182.95 103.476C179.703 102.741 176.708 102 176.708 102L165.267 102.122V102.136Z" fill="#FFC100" stroke="#263238" stroke-linecap="round" stroke-linejoin="round"/>
<path d="M160.846 103.727L155.777 107.78L156.166 114.043L158.247 110.357L161.631 114.777L160.846 103.727Z" fill="white" stroke="#263238" stroke-linecap="round" stroke-linejoin="round"/>
<path d="M159.154 99.0623L161.494 113.057L175.793 100.042L174.49 95.4991C174.49 95.4991 168.773 99.6743 166.433 100.654C164.093 101.633 159.154 99.0555 159.154 99.0555V99.0623Z" fill="white" stroke="#263238" stroke-linecap="round" stroke-linejoin="round"/>
<path d="M152.401 78.0708C152.401 78.0708 153.963 71.4408 156.692 68.374C159.421 65.3072 167.614 63.954 172.294 65.552C176.974 67.15 180.481 71.6924 181.136 75.4936C181.784 79.3016 181.913 80.5256 182.302 81.3892C182.691 82.246 183.209 82.9872 183.209 82.9872L152.012 79.1792L152.401 78.0776V78.0708Z" fill="white" stroke="#263238" stroke-miterlimit="10"/>
<path d="M154.344 78.0707C154.344 78.0707 145.632 77.5811 147.584 78.8051C149.535 80.0359 149.924 80.6479 157.721 81.8719C165.519 83.0959 174.749 85.1835 174.749 85.1835C174.749 85.1835 178.522 88.1279 182.158 87.1487C185.794 86.1695 186.449 85.0611 184.368 83.2183C182.288 81.3755 154.337 78.0639 154.337 78.0639L154.344 78.0707Z" fill="#C4C4C4" stroke="#263238" stroke-miterlimit="10"/>
<path d="M165.914 67.8776C165.914 67.8776 166.951 66.0348 168.773 65.4228C170.594 64.8108 172.279 65.5452 172.279 65.5452C172.279 65.5452 165.129 61.0028 160.061 66.6468" fill="white"/>
<path d="M165.914 67.8776C165.914 67.8776 166.951 66.0348 168.773 65.4228C170.594 64.8108 172.279 65.5452 172.279 65.5452C172.279 65.5452 165.129 61.0028 160.061 66.6468" stroke="#263238" stroke-miterlimit="10"/>
<path d="M154.819 80.7976C154.819 80.7976 154.481 92.31 155.259 94.7648C156.036 97.2196 160.198 101.762 161.501 102.129C162.804 102.496 165.144 103.108 166.44 102.741C167.743 102.374 172.683 99.0556 173.849 98.0764C175.015 97.0972 176.189 94.146 176.189 93.4116C176.189 92.6772 176.707 91.2016 176.707 91.2016C176.707 91.2016 178.399 90.9568 179.047 90.1C179.695 89.2432 179.695 87.7676 179.177 87.1556C178.659 86.5436 178.011 86.1764 178.011 86.1764L178.14 83.9664L154.819 80.8044V80.7976Z" fill="white" stroke="#263238" stroke-linecap="round" stroke-linejoin="round"/>
<path d="M159.551 86.666C159.551 86.666 159.551 89.2432 159.421 89.8552C159.291 90.4672 158.255 91.4532 158.773 92.0652C159.291 92.6772 160.724 93.4184 162.546 92.6772" stroke="#263238" stroke-linecap="round" stroke-linejoin="round"/>
<path d="M159.42 95.0096C159.42 95.0096 160.723 95.744 162.926 95.2544C165.137 94.7648 166.433 93.7788 166.433 93.7788" stroke="#263238" stroke-linecap="round" stroke-linejoin="round"/>
<path d="M151.357 81.6272C151.357 81.6272 151.098 84.694 152.135 86.292C153.171 87.89 154.734 88.2572 156.555 88.0124C158.377 87.7676 159.673 85.8024 161.235 86.4144C162.798 87.0264 162.402 89.114 167.082 89.114C171.762 89.114 172.28 84.082 172.28 84.082L151.35 81.6272H151.357Z" stroke="#263238" stroke-linecap="round" stroke-linejoin="round"/>
<path d="M171.379 83.1028C171.379 83.1028 172.545 88.0124 174.108 88.2572C175.67 88.502 178.01 86.1696 178.01 86.1696L178.14 83.9596L171.379 83.1028Z" fill="#263238" stroke="#263238" stroke-linecap="round" stroke-linejoin="round"/>
<path d="M165.152 85.2516C165.152 85.9316 164.756 86.4824 164.266 86.4824C163.777 86.4824 163.381 85.9316 163.381 85.2516C163.381 84.5716 163.777 84.0208 164.266 84.0208C164.756 84.0208 165.152 84.5716 165.152 85.2516Z" fill="#263238"/>
<path d="M158.484 84.4696C158.484 85.1496 158.088 85.7004 157.598 85.7004C157.109 85.7004 156.713 85.1496 156.713 84.4696C156.713 83.7896 157.109 83.2388 157.598 83.2388C158.088 83.2388 158.484 83.7896 158.484 84.4696Z" fill="#263238"/>
<path d="M160.717 108.392L161.631 114.777L178.4 102.258L176.449 98.328L160.717 108.392Z" fill="white" stroke="#263238" stroke-linecap="round" stroke-linejoin="round"/>
<path d="M141.673 136.136C141.429 138.387 141.155 140.699 140.889 142.902C147.585 143.419 159.81 144.554 170.063 146.567C178.883 148.301 185.745 151.103 189.762 153.027L190.885 145.969C186.349 143.963 179.733 141.528 171.532 139.917C160.897 137.822 148.571 136.666 141.673 136.136Z" fill="white" stroke="#263238" stroke-miterlimit="10"/>
<path d="M187.466 167.477L188.546 160.657C174.203 161.167 147.75 158.807 138.945 157.971C138.642 159.841 138.232 162.282 137.814 164.703C145.518 165.451 168.386 167.525 184.082 167.525C185.255 167.525 186.378 167.511 187.466 167.484V167.477Z" fill="white" stroke="#263238" stroke-miterlimit="10"/>
<path d="M189.337 127.847C189.337 127.847 193.973 124.522 194.456 120.748C194.938 116.974 194.139 111.234 189.178 108.365C184.225 105.495 177.989 109.874 177.025 111.384C176.067 112.894 171.43 118.327 171.43 118.327L169.349 120.292L167.593 120.591L161.041 118.327L152.725 127.99C152.725 127.99 165.994 142.331 170.789 142.487C175.585 142.637 183.577 134.035 184.541 132.974C185.499 131.92 189.337 127.84 189.337 127.84V127.847Z" fill="#A1A1A1" stroke="#263238" stroke-miterlimit="10"/>
<path d="M167.592 120.598C167.592 120.598 173.51 123.012 176.066 124.372C178.622 125.732 181.185 128.452 181.185 128.452" stroke="#263238" stroke-miterlimit="10"/>
<path d="M176.391 122.407C176.391 122.407 182.309 123.012 183.907 125.576" stroke="#263238" stroke-miterlimit="10"/>
<path d="M172.711 121.502C172.711 121.502 174.95 120.598 178.629 120.748" stroke="#263238" stroke-miterlimit="10"/>
<path d="M157.204 115.614L138.98 97.1924L136.583 91.3036C136.583 91.3036 133.868 88.1348 132.263 86.7748C130.657 85.4148 129.383 84.3608 129.066 85.4148L128.749 86.4688C128.749 86.4688 126.352 85.1088 125.394 85.1088C124.436 85.1088 123.637 85.408 124.595 86.3192C125.552 87.2304 126.676 89.0392 126.676 89.0392L127.475 90.2496C127.475 90.2496 124.76 88.2844 122.521 87.8356C120.282 87.38 119.324 88.2912 120.282 89.1956C121.24 90.1 123.32 91.46 123.32 91.46L125.876 94.3296C125.876 94.3296 122.039 93.1192 120.757 92.82C119.476 92.5208 119.159 94.18 120.44 94.9348C121.722 95.6896 126.517 97.4984 126.517 97.4984C126.517 97.4984 128.756 101.422 130.996 102.483C133.235 103.537 135.15 105.046 135.15 105.046L150.176 126.031L157.211 115.614H157.204Z" fill="white" stroke="#263238" stroke-miterlimit="10"/>
<path d="M138.98 97.1924L136.583 91.3036C136.583 91.3036 133.868 88.1348 132.263 86.7748C130.657 85.4148 129.383 84.3608 129.066 85.4148L128.749 86.4688C128.749 86.4688 126.352 85.1088 125.394 85.1088C124.436 85.1088 123.637 85.408 124.595 86.3192C125.552 87.2304 126.676 89.0392 126.676 89.0392L127.475 90.2496C127.475 90.2496 124.76 88.2844 122.521 87.8356C120.282 87.38 119.324 88.2912 120.282 89.1956C121.24 90.1 123.32 91.46 123.32 91.46L125.876 94.3296C125.876 94.3296 122.039 93.1192 120.757 92.82C119.476 92.5208 119.159 94.18 120.44 94.9348C121.722 95.6896 126.517 97.4984 126.517 97.4984C126.517 97.4984 128.756 101.422 130.996 102.483C133.235 103.537 135.15 105.046 135.15 105.046L135.69 105.801L142.091 100.334L138.988 97.1992L138.98 97.1924Z" fill="#FFC100" stroke="#263238" stroke-miterlimit="10"/>
<path d="M128.75 86.4689C128.75 86.4689 131.306 88.8829 131.947 89.3385C132.588 89.7941 132.904 90.5489 132.904 90.5489" stroke="#263238" stroke-miterlimit="10"/>
<path d="M127.467 90.2496L129.548 92.514" stroke="#263238" stroke-miterlimit="10"/>
<path d="M157.844 113.499L147.289 124.671L152.725 131.016L162.956 117.123L157.844 113.499Z" fill="white" stroke="#263238" stroke-miterlimit="10"/>
</svg>
